<svg id="icon_postuler" xmlns="http://www.w3.org/2000/svg" width="21.309" height="22.209" viewBox="0 0 21.309 22.209">
  <g id="Groupe_9768" data-name="Groupe 9768">
    <g id="Groupe_9767" data-name="Groupe 9767">
      <path id="Tracé_1081" data-name="Tracé 1081" d="M26.579,17.768h.12l5.792-1.261a.57.57,0,0,0,.3-.15l9.814-9.814a3.782,3.782,0,0,0,1.11-2.7,3.9,3.9,0,0,0-1.11-2.731A3.781,3.781,0,0,0,39.9,0a3.692,3.692,0,0,0-2.7,1.14l-9.784,9.814a.54.54,0,0,0-.18.27l-1.26,5.792a.66.66,0,0,0,.18.57A.6.6,0,0,0,26.579,17.768ZM39.9,1.2a2.611,2.611,0,0,1,2.611,2.611q0,.015,0,.03a2.521,2.521,0,0,1-.75,1.831L38.073,1.951A2.581,2.581,0,0,1,39.9,1.2ZM37.233,2.822l3.691,3.691-8.553,8.523L28.68,11.375ZM28.2,12.576l2.971,2.971-3.812.84Z" transform="translate(-24.928 0)" fill="#fff"/>
      <path id="Tracé_1082" data-name="Tracé 1082" d="M28.546,365.717H8.438a.6.6,0,0,0,0,1.2H28.546a.6.6,0,0,0,0-1.2Z" transform="translate(-7.838 -344.708)" fill="#fff"/>
    </g>
  </g>
</svg>
