<svg xmlns="http://www.w3.org/2000/svg" xmlns:xlink="http://www.w3.org/1999/xlink" width="97" height="97" viewBox="0 0 97 97">
  <defs>
    <filter id="Ellipse_5" x="0" y="0" width="97" height="97" filterUnits="userSpaceOnUse">
      <feOffset dy="5" input="SourceAlpha"/>
      <feGaussianBlur stdDeviation="8" result="blur"/>
      <feFlood flood-color="#303030" flood-opacity="0.2"/>
      <feComposite operator="in" in2="blur"/>
      <feComposite in="SourceGraphic"/>
    </filter>
  </defs>
  <g id="icon_localisation_map" transform="translate(24 19)">
    <g transform="matrix(1, 0, 0, 1, -24, -19)" filter="url(#Ellipse_5)">
      <circle id="Ellipse_5-2" data-name="Ellipse 5" cx="24.5" cy="24.5" r="24.5" transform="translate(24 19)" fill="#e8a144"/>
    </g>
    <path id="path" d="M22.154,14.352a8.822,8.822,0,0,1-7.8,7.8V23.24a.988.988,0,0,1-1.975,0V22.154a8.642,8.642,0,0,1-7.8-7.8H3.488a.988.988,0,1,1,0-1.975H4.574a8.642,8.642,0,0,1,7.8-7.8V3.488a.988.988,0,0,1,1.975,0V4.574a8.822,8.822,0,0,1,7.8,7.8H23.24a.988.988,0,0,1,0,1.975Zm-8.79,5.926a6.913,6.913,0,1,0-6.913-6.913,6.871,6.871,0,0,0,6.913,6.913Zm0-2.963a3.951,3.951,0,1,1,3.951-3.951,3.962,3.962,0,0,1-3.951,3.951Zm0-1.975a1.975,1.975,0,1,0-1.975-1.975,1.981,1.981,0,0,0,1.975,1.975Z" transform="translate(11.387 11.217)" fill="#fff"/>
  </g>
</svg>
