<svg id="picto_audio_médium" xmlns="http://www.w3.org/2000/svg" xmlns:xlink="http://www.w3.org/1999/xlink" width="48.873" height="48.873" viewBox="0 0 48.873 48.873">
  <defs>
    <linearGradient id="linear-gradient" x1="0.5" x2="0.5" y2="1" gradientUnits="objectBoundingBox">
      <stop offset="0" stop-color="#a0ecab"/>
      <stop offset="1" stop-color="#73c59c"/>
    </linearGradient>
  </defs>
  <g id="Groupe_9715" data-name="Groupe 9715">
    <circle id="Ellipse_17566" data-name="Ellipse 17566" cx="24.437" cy="24.437" r="24.437" fill="url(#linear-gradient)"/>
    <g id="Volume" transform="translate(19.687 21.285)">
      <path id="Volume-2" data-name="Volume" d="M10.176,11.545a6.053,6.053,0,0,0,0-8.367l.645-.649a6.736,6.736,0,0,1,0,9.653ZM7.78,9.132a2.537,2.537,0,0,0,0-3.541l.645-.649a3.515,3.515,0,0,1,0,4.826Z" transform="translate(-7.78 -0.116)" fill="#fff"/>
      <path id="Volume-3" data-name="Volume" d="M13.785,13.9a9.227,9.227,0,0,0,0-13.194l.649-.649a10.195,10.195,0,0,1,0,14.478Z" transform="translate(-8.994 -0.059)" fill="#fff"/>
    </g>
    <g id="headphones" transform="translate(11.2 12.218)">
      <g id="Groupe_9678" data-name="Groupe 9678" transform="translate(0 0)">
        <g id="Groupe_9677" data-name="Groupe 9677">
          <path id="Tracé_997" data-name="Tracé 997" d="M2.163,43.322c-.006-.147-.011-.294-.011-.442a10.876,10.876,0,1,1,21.752,0c0,.148,0,.3-.011.442a3.667,3.667,0,0,1,2.163,3.338v3.257a3.668,3.668,0,0,1-3.664,3.664V54.4a.407.407,0,0,1-.407.407H20.356a.407.407,0,0,1-.407-.407V42.182a.407.407,0,0,1,.407-.407h1.133a8.575,8.575,0,0,0-16.923,0H5.7a.407.407,0,0,1,.407.407V54.4A.407.407,0,0,1,5.7,54.8H4.071a.407.407,0,0,1-.407-.407v-.814A3.668,3.668,0,0,1,0,49.917V46.66A3.667,3.667,0,0,1,2.163,43.322Zm20.229,9.445a2.854,2.854,0,0,0,2.85-2.85V46.66a2.854,2.854,0,0,0-2.85-2.85ZM20.763,42.589v11.4h.814v-11.4ZM4.478,53.988h.814v-11.4H4.478ZM3.7,42.015a9.4,9.4,0,0,1,18.653,0,.4.4,0,0,1,.037.167v.189q.026.311.033.627a3.645,3.645,0,0,1,.661.066c0-.062,0-.122,0-.184a10.062,10.062,0,0,0-20.123,0c0,.062,0,.122,0,.184A3.647,3.647,0,0,1,3.632,43q.006-.316.033-.627v-.188A.4.4,0,0,1,3.7,42.015Zm-2.887,7.9a2.854,2.854,0,0,0,2.85,2.85V43.81a2.854,2.854,0,0,0-2.85,2.85Z" transform="translate(0 -32.004)" fill="#fff"/>
        </g>
      </g>
      <g id="Groupe_9680" data-name="Groupe 9680" transform="translate(23.206 16.895)">
        <g id="Groupe_9679" data-name="Groupe 9679">
          <path id="Tracé_998" data-name="Tracé 998" d="M40.407,364a.407.407,0,0,1,.407.407v.407a.407.407,0,1,1-.814,0V364.4A.407.407,0,0,1,40.407,364Z" transform="translate(-40 -363.996)" fill="#fff"/>
        </g>
      </g>
      <g id="Groupe_9682" data-name="Groupe 9682" transform="translate(23.206 15.267)">
        <g id="Groupe_9681" data-name="Groupe 9681">
          <path id="Tracé_999" data-name="Tracé 999" d="M40.407,332a.407.407,0,0,1,.407.407v.407a.407.407,0,1,1-.814,0V332.4A.407.407,0,0,1,40.407,332Z" transform="translate(-40 -331.996)" fill="#fff"/>
        </g>
      </g>
      <g id="Groupe_9684" data-name="Groupe 9684" transform="translate(23.206 13.638)">
        <g id="Groupe_9683" data-name="Groupe 9683">
          <path id="Tracé_1000" data-name="Tracé 1000" d="M40.407,300a.407.407,0,0,1,.407.407v.407a.407.407,0,0,1-.814,0V300.4A.407.407,0,0,1,40.407,300Z" transform="translate(-40 -299.996)" fill="#fff"/>
        </g>
      </g>
    </g>
  </g>
</svg>
