<svg id="Group_9745" data-name="Group 9745" xmlns="http://www.w3.org/2000/svg" xmlns:xlink="http://www.w3.org/1999/xlink" width="153.25" height="45.407" viewBox="0 0 153.25 45.407">
  <defs>
    <style>
      .cls-1 {
        fill: #a6a6a6;
      }

      .cls-2, .cls-9 {
        fill: #fff;
      }

      .cls-3 {
        fill: url(#linear-gradient);
      }

      .cls-4 {
        fill: url(#linear-gradient-2);
      }

      .cls-5 {
        fill: url(#linear-gradient-3);
      }

      .cls-6 {
        fill: url(#linear-gradient-4);
      }

      .cls-7 {
        opacity: 0.2;
      }

      .cls-7, .cls-8, .cls-9 {
        isolation: isolate;
      }

      .cls-8 {
        opacity: 0.12;
      }

      .cls-9 {
        opacity: 0.25;
      }
    </style>
    <linearGradient id="linear-gradient" x1="0.915" y1="3.073" x2="-0.383" y2="2.403" gradientUnits="objectBoundingBox">
      <stop offset="0" stop-color="#00a0ff"/>
      <stop offset="0.007" stop-color="#00a1ff"/>
      <stop offset="0.26" stop-color="#00beff"/>
      <stop offset="0.512" stop-color="#00d2ff"/>
      <stop offset="0.76" stop-color="#00dfff"/>
      <stop offset="1" stop-color="#00e3ff"/>
    </linearGradient>
    <linearGradient id="linear-gradient-2" x1="1.076" y1="6.72" x2="-1.305" y2="6.72" gradientUnits="objectBoundingBox">
      <stop offset="0" stop-color="#ffe000"/>
      <stop offset="0.409" stop-color="#ffbd00"/>
      <stop offset="0.775" stop-color="orange"/>
      <stop offset="1" stop-color="#ff9c00"/>
    </linearGradient>
    <linearGradient id="linear-gradient-3" x1="0.862" y1="3.959" x2="-0.501" y2="2.189" gradientUnits="objectBoundingBox">
      <stop offset="0" stop-color="#ff3a44"/>
      <stop offset="1" stop-color="#c31162"/>
    </linearGradient>
    <linearGradient id="linear-gradient-4" x1="-0.188" y1="6.679" x2="0.421" y2="5.889" gradientUnits="objectBoundingBox">
      <stop offset="0" stop-color="#32a071"/>
      <stop offset="0.068" stop-color="#2da771"/>
      <stop offset="0.476" stop-color="#15cf74"/>
      <stop offset="0.801" stop-color="#06e775"/>
      <stop offset="1" stop-color="#00f076"/>
    </linearGradient>
  </defs>
  <g id="icon_Google_Play">
    <rect id="Rectangle_3530" data-name="Rectangle 3530" width="153.249" height="45.407" rx="4.992" transform="translate(0)"/>
    <g id="Group_9727" data-name="Group 9727">
      <g id="Group_9726" data-name="Group 9726">
        <path id="Path_1016" data-name="Path 1016" class="cls-1" d="M250.039,55.374a4.773,4.773,0,0,1,4.768,4.768V94.2a4.774,4.774,0,0,1-4.768,4.768h-141.9a4.774,4.774,0,0,1-4.768-4.768V60.142a4.773,4.773,0,0,1,4.768-4.768h141.9m0-.908h-141.9a5.693,5.693,0,0,0-5.676,5.676V94.2a5.692,5.692,0,0,0,5.676,5.675h141.9a5.692,5.692,0,0,0,5.676-5.675V60.142a5.693,5.693,0,0,0-5.676-5.676Z" transform="translate(-102.466 -54.466)"/>
      </g>
    </g>
    <path id="Path_1017" data-name="Path 1017" class="cls-2" d="M174.2,76.828a4.828,4.828,0,1,0,4.847,4.828A4.759,4.759,0,0,0,174.2,76.828Zm0,7.755a2.934,2.934,0,1,1,2.725-2.926A2.793,2.793,0,0,1,174.2,84.583Zm-10.572-7.755a4.828,4.828,0,1,0,4.845,4.828A4.759,4.759,0,0,0,163.631,76.828Zm0,7.755a2.934,2.934,0,1,1,2.724-2.926A2.793,2.793,0,0,1,163.631,84.583Zm-12.577-6.273v2.049h4.9a4.277,4.277,0,0,1-1.116,2.578,5.017,5.017,0,0,1-3.786,1.5,5.45,5.45,0,0,1,0-10.9A5.224,5.224,0,0,1,154.749,75l1.445-1.445a7.145,7.145,0,0,0-5.14-2.067,7.5,7.5,0,1,0,0,15,6.857,6.857,0,0,0,5.231-2.1,7.4,7.4,0,0,0,1.664-6.072ZM202.488,79.9a4.489,4.489,0,0,0-4.134-3.073,4.588,4.588,0,0,0-4.553,4.828,4.724,4.724,0,0,0,4.791,4.828,4.8,4.8,0,0,0,4.023-2.14l-1.646-1.1a2.758,2.758,0,0,1-2.377,1.335,2.458,2.458,0,0,1-2.341-1.463l6.456-2.671ZM195.9,81.51a2.647,2.647,0,0,1,2.523-2.816,1.87,1.87,0,0,1,1.793,1.024Zm-5.249,4.682h2.121V72h-2.121Zm-3.475-8.284h-.073a3.347,3.347,0,0,0-2.542-1.079,4.833,4.833,0,0,0,0,9.657,3.293,3.293,0,0,0,2.542-1.1h.073v.695c0,1.847-.987,2.834-2.578,2.834a2.67,2.67,0,0,1-2.432-1.719l-1.847.769a4.6,4.6,0,0,0,4.279,2.852c2.488,0,4.591-1.463,4.591-5.03V77.121H187.18Zm-2.432,6.676a2.937,2.937,0,0,1,0-5.853,2.95,2.95,0,0,1,0,5.853ZM212.424,72h-5.075V86.191h2.118V80.815h2.957a4.414,4.414,0,1,0,0-8.814Zm.056,6.839h-3.013V73.976h3.013a2.433,2.433,0,1,1,0,4.865ZM225.57,76.8a3.976,3.976,0,0,0-3.779,2.173l1.88.786a2.005,2.005,0,0,1,1.935-1.041,2.04,2.04,0,0,1,2.227,1.826v.147a4.68,4.68,0,0,0-2.209-.548c-2.026,0-4.089,1.114-4.089,3.195a3.277,3.277,0,0,0,3.523,3.122,2.989,2.989,0,0,0,2.7-1.387h.073v1.1h2.045V80.727C229.879,78.208,228,76.8,225.57,76.8Zm-.256,7.777c-.694,0-1.661-.347-1.661-1.205,0-1.095,1.205-1.514,2.245-1.514a3.771,3.771,0,0,1,1.935.474A2.567,2.567,0,0,1,225.314,84.579Zm12.013-7.467L234.9,83.265h-.073l-2.519-6.153h-2.283l3.78,8.6L231.65,90.5h2.209l5.824-13.383Zm-19.079,9.079h2.118V72h-2.118Z" transform="translate(-96.856 -52.136)"/>
    <g id="Group_9729" data-name="Group 9729" transform="translate(11.321 8.105)">
      <path id="Path_1018" data-name="Path 1018" class="cls-3" d="M112.949,62a2.273,2.273,0,0,0-.525,1.6V88.7a2.272,2.272,0,0,0,.525,1.594l.084.082L127.1,76.316v-.332L113.033,61.92Z" transform="translate(-112.424 -61.552)"/>
      <path id="Path_1019" data-name="Path 1019" class="cls-4" d="M130.018,79.877l-4.688-4.69v-.332l4.69-4.688.1.06,5.555,3.156c1.586.9,1.586,2.376,0,3.278l-5.555,3.156Z" transform="translate(-110.657 -60.423)"/>
      <path id="Path_1020" data-name="Path 1020" class="cls-5" d="M131.828,79.232l-4.794-4.8L112.886,88.584a1.846,1.846,0,0,0,2.359.071l16.583-9.423" transform="translate(-112.361 -59.838)"/>
      <path id="Path_1021" data-name="Path 1021" class="cls-6" d="M131.828,71.4l-16.583-9.422a1.846,1.846,0,0,0-2.359.069l14.147,14.147Z" transform="translate(-112.361 -61.596)"/>
      <g id="Group_9728" data-name="Group 9728" transform="translate(0 19.288)">
        <path id="Path_1022" data-name="Path 1022" class="cls-7" d="M131.723,78.562l-16.478,9.362a1.893,1.893,0,0,1-2.275.013h0l-.084.084h0l.084.082h0a1.889,1.889,0,0,0,2.275-.011l16.583-9.422Z" transform="translate(-112.361 -78.562)"/>
        <path id="Path_1023" data-name="Path 1023" class="cls-8" d="M112.949,86.928a2.276,2.276,0,0,1-.525-1.6V85.5a2.275,2.275,0,0,0,.525,1.6l.084-.084Z" transform="translate(-112.424 -77.635)"/>
      </g>
      <path id="Path_1024" data-name="Path 1024" class="cls-8" d="M135.114,75.91l-5.659,3.216.1.106,5.555-3.156a2,2,0,0,0,1.19-1.638h0A2.114,2.114,0,0,1,135.114,75.91Z" transform="translate(-110.093 -59.838)"/>
      <path id="Path_1025" data-name="Path 1025" class="cls-9" d="M115.308,62.144l22.137,12.577a2.116,2.116,0,0,1,1.19,1.473h0a1.991,1.991,0,0,0-1.19-1.638L115.308,61.978c-1.587-.9-2.884-.152-2.884,1.664v.166C112.424,61.992,113.721,61.242,115.308,62.144Z" transform="translate(-112.424 -61.596)"/>
    </g>
  </g>
  <g id="Group_9744" data-name="Group 9744" transform="translate(46.745 7.681)">
    <g id="Group_9731" data-name="Group 9731" transform="translate(0 0.152)">
      <path id="Path_1026" data-name="Path 1026" class="cls-2" d="M143.683,68.267V61.456h2.083a3.381,3.381,0,0,1,2.511.947,3.681,3.681,0,0,1,0,4.917,3.385,3.385,0,0,1-2.511.947Zm.874-.837h1.209a2.572,2.572,0,1,0,0-5.138h-1.209Z" transform="translate(-143.569 -61.342)"/>
      <path id="Path_1027" data-name="Path 1027" class="cls-2" d="M145.779,68.394h-2.2V61.356h2.2a3.51,3.51,0,0,1,2.592.98,3.794,3.794,0,0,1,0,5.077A3.506,3.506,0,0,1,145.779,68.394Zm-1.969-.227h1.969a3.294,3.294,0,0,0,2.432-.913,3.573,3.573,0,0,0,0-4.758,3.294,3.294,0,0,0-2.432-.913H143.81Zm1.969-.609h-1.322V62.193h1.322a2.685,2.685,0,1,1,0,5.365Zm-1.095-.227h1.095a2.46,2.46,0,0,0,1.789-.643,2.46,2.46,0,0,0-1.789-4.267h-1.095Z" transform="translate(-143.583 -61.356)"/>
    </g>
    <g id="Group_9732" data-name="Group 9732" transform="translate(6.764 0.152)">
      <path id="Path_1028" data-name="Path 1028" class="cls-2" d="M149.633,68.267V61.456h.874v6.811Z" transform="translate(-149.519 -61.342)"/>
      <path id="Path_1029" data-name="Path 1029" class="cls-2" d="M150.635,68.394h-1.1V61.356h1.1Zm-.874-.227h.647V61.583h-.647Z" transform="translate(-149.533 -61.356)"/>
    </g>
    <g id="Group_9733" data-name="Group 9733" transform="translate(8.721)">
      <path id="Path_1030" data-name="Path 1030" class="cls-2" d="M153.75,68.437a2.545,2.545,0,0,1-1.451-.484,2.242,2.242,0,0,1-.928-1.361l.8-.323a1.824,1.824,0,0,0,.584.946,1.478,1.478,0,0,0,.995.385,1.6,1.6,0,0,0,.975-.3.961.961,0,0,0,.4-.814,1.044,1.044,0,0,0-.4-.88,4.18,4.18,0,0,0-1.279-.575,3.406,3.406,0,0,1-1.371-.738,1.538,1.538,0,0,1-.466-1.155,1.691,1.691,0,0,1,.581-1.274,2.126,2.126,0,0,1,1.512-.542,2.191,2.191,0,0,1,1.407.432,2,2,0,0,1,.7.947l-.8.333a1.179,1.179,0,0,0-.423-.6,1.485,1.485,0,0,0-1.731,0,.856.856,0,0,0-.357.7.8.8,0,0,0,.327.642,3.181,3.181,0,0,0,.966.471,8.434,8.434,0,0,1,.842.314,3.8,3.8,0,0,1,.683.4,1.613,1.613,0,0,1,.524.628,2.032,2.032,0,0,1,.176.871,1.875,1.875,0,0,1-.2.884,1.66,1.66,0,0,1-.542.618,2.719,2.719,0,0,1-1.527.465Z" transform="translate(-151.238 -61.208)"/>
      <path id="Path_1031" data-name="Path 1031" class="cls-2" d="M153.766,68.564a2.664,2.664,0,0,1-1.514-.5,2.365,2.365,0,0,1-.974-1.428l-.024-.1,1.012-.408.032.125a1.719,1.719,0,0,0,.549.889,1.361,1.361,0,0,0,.92.357,1.486,1.486,0,0,0,.907-.277.841.841,0,0,0,.358-.722.923.923,0,0,0-.359-.789,4.1,4.1,0,0,0-1.244-.558,3.515,3.515,0,0,1-1.415-.764,1.655,1.655,0,0,1-.5-1.237,1.807,1.807,0,0,1,.617-1.357,2.241,2.241,0,0,1,1.589-.573,2.311,2.311,0,0,1,1.479.457,2.131,2.131,0,0,1,.741,1l.031.1-1.013.423-.034-.125a1.081,1.081,0,0,0-.385-.541,1.372,1.372,0,0,0-1.589.007.739.739,0,0,0-.314.609.682.682,0,0,0,.285.554,3.061,3.061,0,0,0,.93.451,8.312,8.312,0,0,1,.854.318,3.969,3.969,0,0,1,.7.416,1.718,1.718,0,0,1,.559.672,2.149,2.149,0,0,1,.188.919,2,2,0,0,1-.217.937,1.8,1.8,0,0,1-.58.661,2.828,2.828,0,0,1-1.591.484Zm-2.242-1.891a2.129,2.129,0,0,0,.856,1.2,2.448,2.448,0,0,0,2.152.35,2.542,2.542,0,0,0,.7-.332,1.556,1.556,0,0,0,.507-.578,1.774,1.774,0,0,0,.191-.831,1.931,1.931,0,0,0-.165-.822,1.512,1.512,0,0,0-.488-.584,3.744,3.744,0,0,0-.664-.393,8.142,8.142,0,0,0-.831-.309,3.247,3.247,0,0,1-1-.49.907.907,0,0,1-.372-.731.965.965,0,0,1,.4-.788,1.6,1.6,0,0,1,1.874,0,1.373,1.373,0,0,1,.42.537l.588-.244a1.986,1.986,0,0,0-.632-.8,2.094,2.094,0,0,0-1.337-.407,2.026,2.026,0,0,0-1.435.512,1.566,1.566,0,0,0-.545,1.191,1.419,1.419,0,0,0,.432,1.074,3.34,3.34,0,0,0,1.324.711,4.221,4.221,0,0,1,1.314.593,1.154,1.154,0,0,1,.449.97,1.069,1.069,0,0,1-.45.9,1.707,1.707,0,0,1-1.043.322,1.6,1.6,0,0,1-1.069-.413,1.948,1.948,0,0,1-.584-.88Z" transform="translate(-151.254 -61.222)"/>
    </g>
    <g id="Group_9734" data-name="Group 9734" transform="translate(14.65 0.152)">
      <path id="Path_1032" data-name="Path 1032" class="cls-2" d="M157.443,68.267h-.874V61.456h2.32a2.151,2.151,0,0,1,1.5.575,1.978,1.978,0,0,1,0,2.9,2.151,2.151,0,0,1-1.5.575h-1.446Zm0-3.6h1.465a1.131,1.131,0,0,0,.884-.371,1.171,1.171,0,0,0,0-1.636,1.128,1.128,0,0,0-.884-.372h-1.465Z" transform="translate(-156.455 -61.342)"/>
      <path id="Path_1033" data-name="Path 1033" class="cls-2" d="M157.571,68.394h-1.1V61.356H158.9a2.272,2.272,0,0,1,1.575.6,2.094,2.094,0,0,1,0,3.07,2.272,2.272,0,0,1-1.575.6h-1.332Zm-.874-.227h.647V65.408h1.56a2.044,2.044,0,0,0,1.421-.546,1.863,1.863,0,0,0,0-2.733,2.044,2.044,0,0,0-1.421-.546H156.7Zm2.226-3.37h-1.579v-2.6h1.579a1.244,1.244,0,0,1,.97.409,1.287,1.287,0,0,1,0,1.788A1.246,1.246,0,0,1,158.922,64.8Zm-1.352-.226h1.352a1.014,1.014,0,0,0,.8-.333,1.06,1.06,0,0,0,0-1.485,1.014,1.014,0,0,0-.8-.333h-1.352Z" transform="translate(-156.469 -61.356)"/>
    </g>
    <g id="Group_9735" data-name="Group 9735" transform="translate(19.776)">
      <path id="Path_1034" data-name="Path 1034" class="cls-2" d="M167.076,67.405a3.539,3.539,0,0,1-4.994,0,3.679,3.679,0,0,1,0-5.051,3.526,3.526,0,0,1,4.99,0,3.67,3.67,0,0,1,0,5.047Zm-4.349-.571a2.62,2.62,0,0,0,3.7,0,2.9,2.9,0,0,0,0-3.91,2.617,2.617,0,0,0-3.7,0,2.905,2.905,0,0,0,0,3.91Z" transform="translate(-160.964 -61.208)"/>
      <path id="Path_1035" data-name="Path 1035" class="cls-2" d="M164.592,68.564a3.466,3.466,0,0,1-2.578-1.066,3.793,3.793,0,0,1,0-5.209,3.639,3.639,0,0,1,5.152,0,3.781,3.781,0,0,1,0,5.2h0A3.466,3.466,0,0,1,164.592,68.564Zm0-7.115a3.239,3.239,0,0,0-2.415,1,3.564,3.564,0,0,0,0,4.892,3.424,3.424,0,0,0,4.831,0h0a3.555,3.555,0,0,0,0-4.887A3.24,3.24,0,0,0,164.592,61.449Zm0,6.278a2.621,2.621,0,0,1-1.932-.8h0a3.019,3.019,0,0,1,0-4.07,2.732,2.732,0,0,1,3.862,0,3.016,3.016,0,0,1,0,4.07A2.615,2.615,0,0,1,164.592,67.727Zm-1.769-.958a2.506,2.506,0,0,0,3.538,0,2.79,2.79,0,0,0,0-3.751,2.5,2.5,0,0,0-3.538,0,2.79,2.79,0,0,0,0,3.751Z" transform="translate(-160.978 -61.222)"/>
    </g>
    <g id="Group_9736" data-name="Group 9736" transform="translate(28.006 0.152)">
      <path id="Path_1036" data-name="Path 1036" class="cls-2" d="M168.317,68.267V61.456h1.065l3.309,5.3h.038l-.038-1.312V61.456h.877v6.811h-.914l-3.463-5.556h-.038l.038,1.313v4.243Z" transform="translate(-168.203 -61.342)"/>
      <path id="Path_1037" data-name="Path 1037" class="cls-2" d="M173.695,68.394h-1.089l-.034-.055-3.281-5.261.028.956v4.36h-1.1V61.356h1.242l3.161,5.06-.026-.957v-4.1h1.1Zm-.963-.227h.737V61.583h-.649v3.872l.041,1.426h-.217l-3.311-5.3h-.889v6.584h.648V64.038l-.041-1.426h.217l.034.053Z" transform="translate(-168.217 -61.356)"/>
    </g>
    <g id="Group_9737" data-name="Group 9737" transform="translate(34.817 0.152)">
      <path id="Path_1038" data-name="Path 1038" class="cls-2" d="M174.308,68.267V61.456h.874v6.811Z" transform="translate(-174.194 -61.342)"/>
      <path id="Path_1039" data-name="Path 1039" class="cls-2" d="M175.309,68.394h-1.1V61.356h1.1Zm-.874-.227h.648V61.583h-.648Z" transform="translate(-174.208 -61.356)"/>
    </g>
    <g id="Group_9738" data-name="Group 9738" transform="translate(37.251 0.152)">
      <path id="Path_1040" data-name="Path 1040" class="cls-2" d="M176.449,68.267V61.456h2.464a2,2,0,0,1,1.384.528,1.71,1.71,0,0,1,.586,1.327,1.483,1.483,0,0,1-.252.856,1.572,1.572,0,0,1-.671.562v.038a1.738,1.738,0,0,1,.828.59,1.545,1.545,0,0,1,.324.971,1.785,1.785,0,0,1-.614,1.388,2.1,2.1,0,0,1-1.451.553Zm.874-3.892h1.589a1.023,1.023,0,0,0,.795-.327,1.016,1.016,0,0,0,.008-1.431.974.974,0,0,0-.764-.324h-1.628Zm0,3.055h1.761a1.043,1.043,0,0,0,.817-.354,1.125,1.125,0,0,0,.314-.77,1.144,1.144,0,0,0-1.17-1.113h-1.722Z" transform="translate(-176.335 -61.342)"/>
      <path id="Path_1041" data-name="Path 1041" class="cls-2" d="M179.059,68.394h-2.71V61.356h2.577a2.124,2.124,0,0,1,1.461.557,1.834,1.834,0,0,1,.622,1.411,1.6,1.6,0,0,1-.272.92,1.687,1.687,0,0,1-.535.506,1.828,1.828,0,0,1,.688.55,1.663,1.663,0,0,1,.348,1.04,1.9,1.9,0,0,1-.653,1.472A2.211,2.211,0,0,1,179.059,68.394Zm-2.484-.227h2.484a2,2,0,0,0,1.376-.523,1.67,1.67,0,0,0,.576-1.3,1.439,1.439,0,0,0-.3-.9,1.631,1.631,0,0,0-.774-.551l-.076-.026v-.192l.066-.03a1.475,1.475,0,0,0,.623-.523,1.373,1.373,0,0,0,.234-.792,1.588,1.588,0,0,0-.549-1.243,1.9,1.9,0,0,0-1.307-.5h-2.351Zm2.523-.609h-1.874V65.094h1.835a1.258,1.258,0,0,1,1.284,1.227,1.246,1.246,0,0,1-.343.846A1.155,1.155,0,0,1,179.1,67.558Zm-1.647-.227H179.1a.931.931,0,0,0,.733-.315,1.012,1.012,0,0,0,.285-.695,1.036,1.036,0,0,0-1.057-1h-1.609Zm1.476-2.827h-1.7v-2.31h1.741a1.09,1.09,0,0,1,.849.362,1.132,1.132,0,0,1-.009,1.584A1.138,1.138,0,0,1,178.926,64.5Zm-1.476-.227h1.476a.905.905,0,0,0,.711-.291.9.9,0,0,0,.008-1.279.862.862,0,0,0-.68-.285h-1.514Z" transform="translate(-176.349 -61.356)"/>
    </g>
    <g id="Group_9739" data-name="Group 9739" transform="translate(43.092 0.152)">
      <path id="Path_1042" data-name="Path 1042" class="cls-2" d="M181.587,68.267V61.456h.874V67.43h2.949v.837Z" transform="translate(-181.473 -61.342)"/>
      <path id="Path_1043" data-name="Path 1043" class="cls-2" d="M185.537,68.394h-4.05V61.356h1.1V67.33h2.949Zm-3.823-.227h3.6v-.609h-2.948V61.583h-.649Z" transform="translate(-181.487 -61.356)"/>
    </g>
    <g id="Group_9740" data-name="Group 9740" transform="translate(48.02 0.152)">
      <path id="Path_1044" data-name="Path 1044" class="cls-2" d="M189.9,62.293h-3.1v2.159h2.8v.819h-2.8v2.16h3.1v.837h-3.977V61.456H189.9Z" transform="translate(-185.807 -61.342)"/>
      <path id="Path_1045" data-name="Path 1045" class="cls-2" d="M190.024,68.394h-4.2V61.356h4.2V62.42h-3.1v1.932h2.8V65.4h-2.8V67.33h3.1Zm-3.977-.227H189.8v-.609h-3.1V65.17h2.8v-.591h-2.8V62.193h3.1v-.609h-3.751Z" transform="translate(-185.821 -61.356)"/>
    </g>
    <g id="Group_9741" data-name="Group 9741" transform="translate(54.886)">
      <path id="Path_1046" data-name="Path 1046" class="cls-2" d="M194.357,68.437a2.545,2.545,0,0,1-1.451-.484,2.242,2.242,0,0,1-.928-1.361l.8-.323a1.824,1.824,0,0,0,.584.946,1.478,1.478,0,0,0,.995.385,1.6,1.6,0,0,0,.975-.3.961.961,0,0,0,.4-.814,1.044,1.044,0,0,0-.4-.88,4.178,4.178,0,0,0-1.279-.575,3.406,3.406,0,0,1-1.371-.738,1.537,1.537,0,0,1-.466-1.155,1.687,1.687,0,0,1,.581-1.274,2.126,2.126,0,0,1,1.512-.542,2.191,2.191,0,0,1,1.407.432,2,2,0,0,1,.7.947l-.8.333a1.178,1.178,0,0,0-.423-.6,1.485,1.485,0,0,0-1.731,0,.856.856,0,0,0-.357.7.8.8,0,0,0,.327.642,3.181,3.181,0,0,0,.966.471,8.438,8.438,0,0,1,.842.314,3.8,3.8,0,0,1,.683.4,1.612,1.612,0,0,1,.524.628,2.033,2.033,0,0,1,.176.871,1.876,1.876,0,0,1-.2.884,1.663,1.663,0,0,1-.543.618,2.712,2.712,0,0,1-1.526.465Z" transform="translate(-191.845 -61.208)"/>
      <path id="Path_1047" data-name="Path 1047" class="cls-2" d="M194.374,68.564a2.664,2.664,0,0,1-1.514-.5,2.359,2.359,0,0,1-.973-1.428l-.025-.1,1.012-.408.032.125a1.725,1.725,0,0,0,.548.889,1.362,1.362,0,0,0,.921.357,1.483,1.483,0,0,0,.907-.277.841.841,0,0,0,.358-.722.923.923,0,0,0-.359-.789,4.1,4.1,0,0,0-1.244-.558,3.515,3.515,0,0,1-1.415-.764,1.659,1.659,0,0,1-.5-1.237,1.807,1.807,0,0,1,.617-1.357,2.239,2.239,0,0,1,1.589-.573,2.313,2.313,0,0,1,1.479.457,2.131,2.131,0,0,1,.741,1l.031.1-1.014.423-.033-.125a1.071,1.071,0,0,0-.387-.541,1.227,1.227,0,0,0-.8-.25,1.239,1.239,0,0,0-.79.257.742.742,0,0,0-.314.609.683.683,0,0,0,.287.554,3.048,3.048,0,0,0,.93.451,8.209,8.209,0,0,1,.854.318,4.009,4.009,0,0,1,.7.416,1.727,1.727,0,0,1,.559.672,2.131,2.131,0,0,1,.186.919,1.989,1.989,0,0,1-.216.937,1.79,1.79,0,0,1-.581.661,2.828,2.828,0,0,1-.757.362A2.864,2.864,0,0,1,194.374,68.564Zm-2.243-1.891a2.131,2.131,0,0,0,.857,1.2,2.447,2.447,0,0,0,2.152.35,2.565,2.565,0,0,0,.7-.332,1.563,1.563,0,0,0,.506-.578,1.76,1.76,0,0,0,.191-.831,1.915,1.915,0,0,0-.166-.822,1.5,1.5,0,0,0-.487-.584,3.744,3.744,0,0,0-.664-.393,7.941,7.941,0,0,0-.831-.309,3.269,3.269,0,0,1-1-.49.909.909,0,0,1-.371-.731.965.965,0,0,1,.4-.788,1.6,1.6,0,0,1,1.874,0,1.366,1.366,0,0,1,.421.537l.587-.244a1.986,1.986,0,0,0-.632-.8,2.1,2.1,0,0,0-1.337-.407,2.024,2.024,0,0,0-1.435.512,1.567,1.567,0,0,0-.546,1.191,1.421,1.421,0,0,0,.433,1.074,3.338,3.338,0,0,0,1.326.711,4.213,4.213,0,0,1,1.313.593,1.153,1.153,0,0,1,.448.97,1.068,1.068,0,0,1-.449.9,1.707,1.707,0,0,1-1.042.322,1.6,1.6,0,0,1-1.069-.413,1.948,1.948,0,0,1-.584-.88Z" transform="translate(-191.861 -61.222)"/>
    </g>
    <g id="Group_9742" data-name="Group 9742" transform="translate(60.662 0.152)">
      <path id="Path_1048" data-name="Path 1048" class="cls-2" d="M199.562,68.418a2.39,2.39,0,0,1-1.822-.741,2.718,2.718,0,0,1-.7-1.941v-4.28h.874v4.319a1.949,1.949,0,0,0,.424,1.307,1.746,1.746,0,0,0,2.444,0,1.948,1.948,0,0,0,.423-1.307V61.456h.877v4.28a2.753,2.753,0,0,1-.681,1.945A2.38,2.38,0,0,1,199.562,68.418Z" transform="translate(-196.927 -61.342)"/>
      <path id="Path_1049" data-name="Path 1049" class="cls-2" d="M199.575,68.546a2.513,2.513,0,0,1-1.9-.776,2.839,2.839,0,0,1-.73-2.019V61.356h1.1v4.433a1.859,1.859,0,0,0,.4,1.235,1.392,1.392,0,0,0,1.136.458,1.411,1.411,0,0,0,1.136-.458,1.859,1.859,0,0,0,.4-1.235V61.356h1.1V65.75a2.871,2.871,0,0,1-.711,2.023A2.5,2.5,0,0,1,199.575,68.546Zm-2.408-6.962V65.75a2.619,2.619,0,0,0,.669,1.863,2.527,2.527,0,0,0,3.5,0,2.659,2.659,0,0,0,.65-1.868V61.583h-.649v4.205a2.071,2.071,0,0,1-.45,1.381,1.858,1.858,0,0,1-2.617,0,2.065,2.065,0,0,1-.45-1.381V61.583Z" transform="translate(-196.941 -61.356)"/>
    </g>
    <g id="Group_9743" data-name="Group 9743" transform="translate(67.112 0.152)">
      <path id="Path_1050" data-name="Path 1050" class="cls-2" d="M202.714,68.267V61.456h2.321a2.146,2.146,0,0,1,1.5.575,1.96,1.96,0,0,1,.167,2.711,2.018,2.018,0,0,1-1.161.689l-.019.028,1.912,2.769v.038H206.4l-1.835-2.759h-.972v2.759Zm.874-3.577H205a1.29,1.29,0,0,0,.9-.343,1.119,1.119,0,0,0,.375-.865,1.2,1.2,0,0,0-.332-.817,1.13,1.13,0,0,0-.884-.372h-1.467Z" transform="translate(-202.601 -61.342)"/>
      <path id="Path_1051" data-name="Path 1051" class="cls-2" d="M207.559,68.394h-1.211l-.034-.051-1.8-2.708h-.8v2.759h-1.1V61.356h2.434a2.274,2.274,0,0,1,1.575.6,2.075,2.075,0,0,1,.176,2.869,2.149,2.149,0,0,1-1.093.7l1.852,2.681Zm-1.089-.227h.784L205.4,65.475l.088-.131.045-.01a1.911,1.911,0,0,0,1.1-.651,1.778,1.778,0,0,0,.441-1.187,1.75,1.75,0,0,0-.6-1.367,2.046,2.046,0,0,0-1.421-.546h-2.208v6.584h.648V65.408h1.145l.033.051Zm-1.46-3.349h-1.521V62.193h1.578a1.242,1.242,0,0,1,.97.409,1.314,1.314,0,0,1,.362.894,1.232,1.232,0,0,1-.413.949A1.406,1.406,0,0,1,205.01,64.818Zm-1.295-.227h1.295a1.167,1.167,0,0,0,.822-.313,1,1,0,0,0,.34-.782,1.085,1.085,0,0,0-.3-.742,1.016,1.016,0,0,0-.8-.333h-1.352Z" transform="translate(-202.615 -61.356)"/>
    </g>
  </g>
</svg>
