<svg id="Composant_50_1" data-name="Composant 50 – 1" xmlns="http://www.w3.org/2000/svg" xmlns:xlink="http://www.w3.org/1999/xlink" width="1297" height="277" viewBox="0 0 1297 277">
  <defs>
    <linearGradient id="linear-gradient" x1="0.988" y1="0.039" x2="0" y2="0.86" gradientUnits="objectBoundingBox">
      <stop offset="0" stop-color="#a0ecab"/>
      <stop offset="1" stop-color="#73c59c"/>
    </linearGradient>
    <filter id="Rectangle_3583" x="871.5" y="138" width="302" height="59" filterUnits="userSpaceOnUse">
      <feOffset dy="2" input="SourceAlpha"/>
      <feGaussianBlur stdDeviation="1" result="blur"/>
      <feFlood flood-opacity="0.161"/>
      <feComposite operator="in" in2="blur"/>
      <feComposite in="SourceGraphic"/>
    </filter>
  </defs>
  <rect id="Rectangle_3471" data-name="Rectangle 3471" width="1297" height="277" fill="url(#linear-gradient)"/>
  <text id="NAVIGATION" transform="translate(574 68)" fill="#fff" font-size="13" font-family="Montserrat-Bold, Montserrat" font-weight="700"><tspan x="0" y="0">NAVIGATION</tspan></text>
  <text id="NEWSLETTER" transform="translate(878 68)" fill="#fff" font-size="13" font-family="Montserrat-Bold, Montserrat" font-weight="700"><tspan x="0" y="0">NEWSLETTER</tspan></text>
  <text id="NOUS_CONTACTER" data-name="NOUS CONTACTER" transform="translate(270 68)" fill="#fff" font-size="13" font-family="Montserrat-Bold, Montserrat" font-weight="700"><tspan x="0" y="0">NOUS CONTACTER</tspan></text>
  <text id="Conditions_générale_de_ventes" data-name="Conditions générale de ventes" transform="translate(574 172)" fill="#fff" font-size="12" font-family="Montserrat-Regular, Montserrat"><tspan x="0" y="0">Conditions générale de ventes</tspan></text>
  <text id="Espace_recruteur" data-name="Espace recruteur" transform="translate(574 125)" fill="#fff" font-size="12" font-family="Montserrat-Regular, Montserrat"><tspan x="0" y="0">Espace recruteur</tspan></text>
  <text id="Mentions_Légales" data-name="Mentions Légales" transform="translate(574 195)" fill="#fff" font-size="12" font-family="Montserrat-Regular, Montserrat"><tspan x="0" y="0">Mentions Légales</tspan></text>
  <text id="Espace_candidat" data-name="Espace candidat" transform="translate(574 102)" fill="#fff" font-size="12" font-family="Montserrat-Regular, Montserrat"><tspan x="0" y="0">Espace candidat</tspan></text>
  <text id="Rue_des_Terres_Neuves_Bâtiment_16_-_Côté_Esplanade_du_Cirque_33130_Bègles_33_0_6_27_50_95_24" data-name="Rue des Terres Neuves
Bâtiment 16 - Côté Esplanade du Cirque
33130 Bègles
 +33 (0)6 27 50 95 24" transform="translate(270 91)" fill="#fff" font-size="12" font-family="Montserrat-Light, Montserrat" font-weight="300"><tspan x="0" y="12">Rue des Terres Neuves</tspan><tspan x="0" y="30">Bâtiment 16 - Côté Esplanade du Cirque</tspan><tspan x="0" y="48">33130 Bègles</tspan><tspan x="0" y="66" xml:space="preserve"> +33 (0)6 27 50 95 24</tspan></text>
  <text id="Lorem_ipsum_dolor_sit_amet_consectetur_adipiscing_elit._Phasellus_molestie_" data-name="Lorem ipsum dolor sit amet, consectetur adipiscing elit. Phasellus molestie, 
" transform="translate(878 91)" fill="#fff" font-size="12" font-family="Montserrat-Light, Montserrat" font-weight="300"><tspan x="0" y="12">Lorem ipsum dolor sit amet, consectetur </tspan><tspan x="0" y="30">adipiscing elit. Phasellus molestie, </tspan></text>
  <text id="Aide" transform="translate(574 218)" fill="#fff" font-size="12" font-family="Montserrat-Regular, Montserrat"><tspan x="0" y="0">Aide</tspan></text>
  <g id="Groupe_10091" data-name="Groupe 10091" transform="translate(1046.5 -1442)">
    <g transform="matrix(1, 0, 0, 1, -1046.5, 1442)" filter="url(#Rectangle_3583)">
      <rect id="Rectangle_3583-2" data-name="Rectangle 3583" width="296" height="53" rx="26.5" transform="translate(874.5 139)" fill="#fff"/>
    </g>
    <text id="e-mail" transform="translate(-125 1611)" fill="#42475e" font-size="11" font-family="Poppins-Regular, Poppins" opacity="0.5"><tspan x="-18.53" y="0">e-mail</tspan></text>
    <text id="OK" transform="translate(88 1613)" fill="#42475e" font-size="15" font-family="Poppins-Regular, Poppins" opacity="0.5"><tspan x="-10.387" y="0">OK</tspan></text>
  </g>
  <g id="Groupe_10503" data-name="Groupe 10503">
    <g id="Groupe_9713" data-name="Groupe 9713" transform="translate(-50.667 -167.268)">
      <g id="Groupe_9675" data-name="Groupe 9675" transform="translate(203.782 210.394)">
        <g id="Groupe_9674" data-name="Groupe 9674" transform="translate(0 0)">
          <path id="Tracé_992" data-name="Tracé 992" d="M329.236,212.627v8.019h3.527v8.292h-3.527a5.547,5.547,0,0,0,.787,3.443,3.616,3.616,0,0,0,2.887.945v8.25q-.61.021-.9.021a10.665,10.665,0,0,1-5.028-1.239A10.173,10.173,0,0,1,323.19,237a12.747,12.747,0,0,1-1.805-7.18V212.627Z" transform="translate(-321.385 -212.249)" fill="#fff"/>
          <path id="Tracé_993" data-name="Tracé 993" d="M400.066,260.3v8.124a10.358,10.358,0,0,1-1.763.168,10.756,10.756,0,0,1-7.872-3.107A10.942,10.942,0,0,1,398.2,246.8a10.736,10.736,0,0,1,8.009,2.97,11.054,11.054,0,0,1,2.929,8.114v10.265h-7.851v-9.7a4.049,4.049,0,0,0-.808-2.645,2.663,2.663,0,0,0-2.173-.987,3.09,3.09,0,0,0-2.225,5.185,2.778,2.778,0,0,0,2.078.84A3.562,3.562,0,0,0,400.066,260.3Z" transform="translate(-373.195 -239.12)" fill="#fff"/>
          <path id="Tracé_994" data-name="Tracé 994" d="M522.28,223.6v8.229h-3.506v8.061h-7.851V222.111a11.644,11.644,0,0,1,1.029-5.122,10.716,10.716,0,0,1,3.957-4.419,10.07,10.07,0,0,1,5.532-1.711l.84.021v8.229c-.182-.014-.315-.021-.4-.021a2.8,2.8,0,0,0-2.3.987,4.331,4.331,0,0,0-.808,2.813v.714Z" transform="translate(-470.407 -210.859)" fill="#fff"/>
        </g>
      </g>
      <path id="Tracé_995" data-name="Tracé 995" d="M188.227,210.267a14.741,14.741,0,1,0,14.741,14.741A14.741,14.741,0,0,0,188.227,210.267Zm0,27.661a12.92,12.92,0,1,1,12.92-12.92A12.92,12.92,0,0,1,188.227,237.928Z" fill="#fff"/>
      <path id="Tracé_996" data-name="Tracé 996" d="M238.418,257.665q-2.061-1.314-4.128-2.618-1.513-.959-3.025-1.92a2.334,2.334,0,0,0-.209-.126c-.461-.228-.745-.062-.749.452-.007,1.141,0,2.281,0,3.422q0,.591,0,1.182,0,2.2,0,4.4a2.154,2.154,0,0,0,.02.406c.088.453.343.569.729.326q3.582-2.261,7.16-4.529a1.555,1.555,0,0,0,.293-.219A.457.457,0,0,0,238.418,257.665Z" transform="translate(-44.672 -33.52)" fill="#fff"/>
    </g>
    <g id="Groupe_10502" data-name="Groupe 10502" transform="translate(101.835 52.049)">
      <path id="Tracé_4093" data-name="Tracé 4093" d="M76.171,64.132a8.805,8.805,0,0,1-3.083.6,7.946,7.946,0,0,1-6.1-2.72,9.506,9.506,0,0,1-2.5-6.7A9.655,9.655,0,0,1,67.5,48.128a10.176,10.176,0,0,1,7.377-2.92,10.922,10.922,0,0,1,4.461.935,8.4,8.4,0,0,1,3.341,2.5q2.028,2.611,2.027,7.561v6.527c0,5.305-2.712,7.761-3.012,8.623a10.116,10.116,0,0,1-7.85,3.312,12.421,12.421,0,0,1-3.72-.744V67.167a6.04,6.04,0,0,0,2.947.773,3.81,3.81,0,0,0,3.1-1.321A5.855,5.855,0,0,0,77.26,62.81V55.391c0-3.128-2.272-2.81-2.524-3.124a2.566,2.566,0,0,0-1.883.827,2.63,2.63,0,0,0-.8,1.9,2.539,2.539,0,0,0,.766,1.889,2.6,2.6,0,0,0,1.9.756,3.174,3.174,0,0,0,1.458-.354Z" transform="translate(-64.49 -45.205)" fill="#fff"/>
      <g id="Groupe_10489" data-name="Groupe 10489">
        <path id="Tracé_4094" data-name="Tracé 4094" d="M76.171,64.132a8.805,8.805,0,0,1-3.083.6,7.946,7.946,0,0,1-6.1-2.72,9.506,9.506,0,0,1-2.5-6.7A9.655,9.655,0,0,1,67.5,48.128a10.176,10.176,0,0,1,7.377-2.92,10.922,10.922,0,0,1,4.461.935,8.4,8.4,0,0,1,3.341,2.5q2.028,2.611,2.027,7.561v6.527c0,5.305-2.712,7.761-3.012,8.623a10.116,10.116,0,0,1-7.85,3.312,12.421,12.421,0,0,1-3.72-.744V67.167a6.04,6.04,0,0,0,2.947.773,3.81,3.81,0,0,0,3.1-1.321A5.855,5.855,0,0,0,77.26,62.81V55.391c0-3.128-2.272-2.81-2.524-3.124a2.566,2.566,0,0,0-1.883.827,2.63,2.63,0,0,0-.8,1.9,2.539,2.539,0,0,0,.766,1.889,2.6,2.6,0,0,0,1.9.756,3.174,3.174,0,0,0,1.458-.354Z" transform="translate(-64.49 -45.205)" fill="#fff" stroke="rgba(0,0,0,0)" stroke-width="1"/>
      </g>
    </g>
  </g>
</svg>
