<svg id="icon_App_Store" xmlns="http://www.w3.org/2000/svg" width="143.824" height="45.475" viewBox="0 0 143.824 45.475">
  <g id="Groupe_9750" data-name="Groupe 9750">
    <g id="Groupe_9749" data-name="Groupe 9749">
      <g id="Groupe_9748" data-name="Groupe 9748">
        <g id="Groupe_9747" data-name="Groupe 9747">
          <g id="Groupe_9746" data-name="Groupe 9746">
            <path id="Tracé_1052" data-name="Tracé 1052" d="M100.081,54.231H-22.07c-.416,0-.829,0-1.244,0-.348,0-.694.009-1.045.015a14.8,14.8,0,0,0-2.278.2,7.545,7.545,0,0,0-2.161.713A7.328,7.328,0,0,0-30.639,56.5a7.141,7.141,0,0,0-1.339,1.843,7.527,7.527,0,0,0-.711,2.165,14.844,14.844,0,0,0-.2,2.276c-.01.348-.011.7-.017,1.047V90.11c.006.352.007.695.017,1.048a14.857,14.857,0,0,0,.2,2.276,7.516,7.516,0,0,0,.711,2.165,7.062,7.062,0,0,0,1.339,1.835,7.142,7.142,0,0,0,1.841,1.34,7.626,7.626,0,0,0,2.161.717,15.234,15.234,0,0,0,2.278.2c.351.008.7.013,1.045.013.415,0,.828,0,1.244,0H100.081c.408,0,.824,0,1.232,0,.347,0,.7,0,1.048-.013a15.044,15.044,0,0,0,2.274-.2,7.749,7.749,0,0,0,2.169-.717,7.111,7.111,0,0,0,1.838-1.34,7.266,7.266,0,0,0,1.344-1.835,7.5,7.5,0,0,0,.7-2.165,15.459,15.459,0,0,0,.211-2.276c0-.354,0-.7,0-1.048.008-.414.008-.824.008-1.244V65.072c0-.416,0-.829-.008-1.24,0-.349,0-.7,0-1.047a15.445,15.445,0,0,0-.211-2.276,7.514,7.514,0,0,0-.7-2.165,7.35,7.35,0,0,0-3.182-3.182,7.665,7.665,0,0,0-2.169-.713,14.621,14.621,0,0,0-2.274-.2c-.347-.006-.7-.012-1.048-.015-.408,0-.824,0-1.232,0Z" transform="translate(32.909 -54.231)" fill="#b6b6b6"/>
            <path id="Tracé_1053" data-name="Tracé 1053" d="M-23.428,98.592c-.347,0-.684,0-1.029-.012a14.194,14.194,0,0,1-2.125-.185,6.675,6.675,0,0,1-1.884-.623,6.148,6.148,0,0,1-1.588-1.155,6.036,6.036,0,0,1-1.16-1.588,6.482,6.482,0,0,1-.617-1.884,14.082,14.082,0,0,1-.189-2.132c-.008-.24-.017-1.038-.017-1.038V63.712s.01-.787.017-1.018a14.039,14.039,0,0,1,.188-2.128,6.553,6.553,0,0,1,.617-1.89,6.1,6.1,0,0,1,1.155-1.589,6.33,6.33,0,0,1,1.594-1.163,6.651,6.651,0,0,1,1.879-.618,14.536,14.536,0,0,1,2.133-.186l1.025-.014H101.189l1.038.015a14.216,14.216,0,0,1,2.113.184,6.792,6.792,0,0,1,1.9.623,6.375,6.375,0,0,1,2.746,2.751,6.594,6.594,0,0,1,.608,1.875,14.89,14.89,0,0,1,.2,2.145c0,.323,0,.668,0,1.013.009.426.009.831.009,1.24V88.746c0,.413,0,.816-.009,1.222,0,.369,0,.708,0,1.057a14.594,14.594,0,0,1-.194,2.107,6.551,6.551,0,0,1-.614,1.9,6.235,6.235,0,0,1-1.155,1.576,6.169,6.169,0,0,1-1.59,1.163,6.676,6.676,0,0,1-1.9.624,14.045,14.045,0,0,1-2.126.185c-.332.008-.681.012-1.02.012l-1.232,0Z" transform="translate(33.028 -54.111)"/>
          </g>
        </g>
      </g>
    </g>
  </g>
  <g id="Groupe_9757" data-name="Groupe 9757" transform="translate(11.34 9.122)">
    <g id="Groupe_9754" data-name="Groupe 9754" transform="translate(0 0.791)">
      <g id="Groupe_9753" data-name="Groupe 9753">
        <g id="Groupe_9752" data-name="Groupe 9752">
          <g id="Groupe_9751" data-name="Groupe 9751">
            <path id="Tracé_1054" data-name="Tracé 1054" d="M-6.111,75.4a5.625,5.625,0,0,1,2.678-4.72A5.757,5.757,0,0,0-7.97,68.224c-1.909-.2-3.76,1.143-4.733,1.143-.991,0-2.49-1.122-4.1-1.089a6.041,6.041,0,0,0-5.085,3.1c-2.2,3.806-.559,9.4,1.547,12.478,1.054,1.506,2.285,3.19,3.9,3.13,1.577-.065,2.166-1,4.069-1,1.886,0,2.439,1,4.083.967,1.692-.027,2.758-1.514,3.774-3.034A12.439,12.439,0,0,0-2.793,80.4,5.436,5.436,0,0,1-6.111,75.4Z" transform="translate(22.935 -62.232)" fill="#fff"/>
            <path id="Tracé_1055" data-name="Tracé 1055" d="M-10.422,66.92a5.535,5.535,0,0,0,1.266-3.969A5.638,5.638,0,0,0-12.8,64.838a5.268,5.268,0,0,0-1.3,3.821A4.656,4.656,0,0,0-10.422,66.92Z" transform="translate(24.14 -62.951)" fill="#fff"/>
          </g>
        </g>
      </g>
    </g>
    <g id="Groupe_9756" data-name="Groupe 9756" transform="translate(27.062)">
      <g id="Groupe_9755" data-name="Groupe 9755" transform="translate(0)">
        <path id="Tracé_1056" data-name="Tracé 1056" d="M3,69.75V63.924H.869v-.958H6.186v.958H4.057V69.75Z" transform="translate(-0.869 -62.158)" fill="#fff"/>
        <path id="Tracé_1057" data-name="Tracé 1057" d="M10.407,68.465a2.077,2.077,0,0,1-2.218,1.481c-1.467,0-2.365-1.006-2.365-2.642s.917-2.675,2.36-2.675c1.425,0,2.284.973,2.284,2.581v.352H6.853v.057a1.354,1.354,0,0,0,1.364,1.467,1.226,1.226,0,0,0,1.218-.621Zm-3.554-1.65H9.439a1.236,1.236,0,0,0-1.26-1.327A1.31,1.31,0,0,0,6.853,66.815Zm.724-2.943,1.18-1.617H9.942L8.621,63.872Z" transform="translate(-0.191 -62.255)" fill="#fff"/>
        <path id="Tracé_1058" data-name="Tracé 1058" d="M11.144,62.672h1.01V69.79h-1.01Z" transform="translate(0.537 -62.198)" fill="#fff"/>
        <path id="Tracé_1059" data-name="Tracé 1059" d="M17.851,68.465a2.078,2.078,0,0,1-2.218,1.481c-1.467,0-2.365-1.006-2.365-2.642s.916-2.675,2.36-2.675c1.425,0,2.284.973,2.284,2.581v.352H14.3v.057a1.353,1.353,0,0,0,1.363,1.467,1.226,1.226,0,0,0,1.218-.621ZM14.3,66.815h2.585a1.235,1.235,0,0,0-1.26-1.327A1.31,1.31,0,0,0,14.3,66.815Zm.724-2.943,1.18-1.617h1.185l-1.321,1.617Z" transform="translate(0.828 -62.255)" fill="#fff"/>
        <path id="Tracé_1060" data-name="Tracé 1060" d="M21.928,66.115a1.143,1.143,0,0,0-1.209-.87c-.846,0-1.364.648-1.364,1.739,0,1.11.522,1.772,1.364,1.772a1.113,1.113,0,0,0,1.209-.841h.982a2,2,0,0,1-2.185,1.744c-1.492,0-2.4-1.006-2.4-2.675a2.334,2.334,0,0,1,2.4-2.642,2.019,2.019,0,0,1,2.191,1.772Z" transform="translate(1.52 -61.969)" fill="#fff"/>
        <path id="Tracé_1061" data-name="Tracé 1061" d="M23.538,62.672h1v2.822h.08a1.576,1.576,0,0,1,1.561-.917,1.687,1.687,0,0,1,1.763,1.909v3.3H26.932V66.734c0-.817-.381-1.232-1.094-1.232a1.2,1.2,0,0,0-1.289,1.3v2.99H23.538Z" transform="translate(2.234 -62.198)" fill="#fff"/>
        <path id="Tracé_1062" data-name="Tracé 1062" d="M28.53,68.113c0-.921.687-1.452,1.9-1.528l1.387-.08v-.442c0-.54-.358-.846-1.048-.846-.564,0-.955.207-1.068.57h-.978c.1-.88.93-1.444,2.092-1.444,1.284,0,2.007.639,2.007,1.72v3.5h-.972v-.72h-.08a1.723,1.723,0,0,1-1.538.8A1.547,1.547,0,0,1,28.53,68.113Zm3.291-.437v-.429l-1.251.081c-.7.047-1.024.286-1.024.738s.4.729.949.729A1.206,1.206,0,0,0,31.821,67.676Z" transform="translate(2.917 -61.969)" fill="#fff"/>
        <path id="Tracé_1063" data-name="Tracé 1063" d="M33.7,64.44h.972v.784h.076a1.386,1.386,0,0,1,1.381-.87,2.124,2.124,0,0,1,.451.042v1a2.767,2.767,0,0,0-.564-.06,1.2,1.2,0,0,0-1.307,1.2V69.56H33.7Z" transform="translate(3.625 -61.968)" fill="#fff"/>
        <path id="Tracé_1064" data-name="Tracé 1064" d="M37.076,70.072H38.11c.086.371.514.611,1.195.611.841,0,1.34-.4,1.34-1.077v-.982H40.57a1.722,1.722,0,0,1-1.58.859c-1.307,0-2.115-1.01-2.115-2.542,0-1.561.816-2.586,2.125-2.586a1.774,1.774,0,0,1,1.608.9h.08V64.44h.969V69.6c0,1.171-.917,1.913-2.365,1.913C38.012,71.515,37.184,70.942,37.076,70.072Zm3.588-3.137c0-1.02-.528-1.672-1.388-1.672s-1.359.653-1.359,1.672.489,1.673,1.359,1.673S40.664,67.961,40.664,66.936Z" transform="translate(4.06 -61.968)" fill="#fff"/>
        <path id="Tracé_1065" data-name="Tracé 1065" d="M46.855,68.179a2.078,2.078,0,0,1-2.218,1.481c-1.467,0-2.365-1.006-2.365-2.642s.917-2.675,2.36-2.675c1.425,0,2.284.973,2.284,2.581v.352H43.3v.057A1.354,1.354,0,0,0,44.664,68.8a1.227,1.227,0,0,0,1.219-.621ZM43.3,66.529h2.586A1.237,1.237,0,0,0,44.626,65.2,1.31,1.31,0,0,0,43.3,66.529Z" transform="translate(4.798 -61.969)" fill="#fff"/>
        <path id="Tracé_1066" data-name="Tracé 1066" d="M47.55,64.44h.973v.784H48.6a1.389,1.389,0,0,1,1.382-.87,2.105,2.105,0,0,1,.45.042v1a2.757,2.757,0,0,0-.564-.06,1.2,1.2,0,0,0-1.306,1.2V69.56H47.55Z" transform="translate(5.521 -61.968)" fill="#fff"/>
        <path id="Tracé_1067" data-name="Tracé 1067" d="M53.287,67.228c0-1.617.831-2.642,2.125-2.642a1.69,1.69,0,0,1,1.57.9h.075V62.672h1.011V69.79H57.1v-.809h-.08a1.776,1.776,0,0,1-1.608.894C54.109,69.874,53.287,68.85,53.287,67.228Zm1.044,0c0,1.087.512,1.739,1.368,1.739s1.378-.663,1.378-1.735-.532-1.738-1.378-1.738S54.331,66.151,54.331,67.228Z" transform="translate(6.306 -62.198)" fill="#fff"/>
        <path id="Tracé_1068" data-name="Tracé 1068" d="M58.693,68.113c0-.921.686-1.452,1.9-1.528l1.386-.08v-.442c0-.54-.357-.846-1.047-.846-.565,0-.955.207-1.068.57h-.978c.1-.88.93-1.444,2.092-1.444,1.282,0,2.007.639,2.007,1.72v3.5h-.972v-.72h-.081a1.72,1.72,0,0,1-1.537.8A1.547,1.547,0,0,1,58.693,68.113Zm3.29-.437v-.429l-1.249.081c-.7.047-1.025.286-1.025.738s.4.729.949.729A1.206,1.206,0,0,0,61.983,67.676Z" transform="translate(7.046 -61.969)" fill="#fff"/>
        <path id="Tracé_1069" data-name="Tracé 1069" d="M63.864,64.442h.972v.813h.076a1.532,1.532,0,0,1,1.527-.912,1.666,1.666,0,0,1,1.772,1.9v3.314H67.2V66.5c0-.823-.357-1.232-1.1-1.232a1.175,1.175,0,0,0-1.223,1.3v2.995h-1.01Z" transform="translate(7.754 -61.969)" fill="#fff"/>
        <path id="Tracé_1070" data-name="Tracé 1070" d="M70.963,64.343c1.152,0,1.9.535,2,1.438H72c-.093-.375-.462-.615-1.035-.615s-.992.267-.992.667c0,.306.259.5.814.625l.85.2c.974.226,1.43.645,1.43,1.4,0,.963-.9,1.608-2.12,1.608s-2.012-.55-2.1-1.457h1.012a1.038,1.038,0,0,0,1.113.639c.63,0,1.078-.282,1.078-.691,0-.3-.24-.5-.753-.625l-.894-.207c-.973-.23-1.424-.667-1.424-1.429C68.975,64.982,69.807,64.343,70.963,64.343Z" transform="translate(8.435 -61.969)" fill="#fff"/>
      </g>
    </g>
  </g>
  <g id="Groupe_9758" data-name="Groupe 9758" transform="translate(40.016 20.305)">
    <path id="Tracé_1071" data-name="Tracé 1071" d="M2.289,72.3H4.4V86.417H2.289Z" transform="translate(-2.289 -72.063)" fill="#fff"/>
    <path id="Tracé_1072" data-name="Tracé 1072" d="M6.389,77.464,7.543,72.3H9.6L8.2,77.464Z" transform="translate(-1.728 -72.063)" fill="#fff"/>
    <path id="Tracé_1073" data-name="Tracé 1073" d="M17.314,82.6H11.933L10.64,86.417H8.361l5.1-14.119h2.368l5.1,14.119H18.605ZM12.49,80.839h4.266l-2.1-6.193h-.059Z" transform="translate(-1.458 -72.063)" fill="#fff"/>
    <path id="Tracé_1074" data-name="Tracé 1074" d="M30.261,80.823c0,3.2-1.712,5.254-4.3,5.254a3.488,3.488,0,0,1-3.238-1.8h-.049v5.1H20.565v-13.7H22.61v1.712h.039a3.654,3.654,0,0,1,3.278-1.819C28.539,75.568,30.261,77.633,30.261,80.823Zm-2.171,0c0-2.084-1.078-3.454-2.721-3.454-1.614,0-2.7,1.4-2.7,3.454,0,2.074,1.086,3.463,2.7,3.463C27.012,84.286,28.09,82.926,28.09,80.823Z" transform="translate(0.213 -71.615)" fill="#fff"/>
    <path id="Tracé_1075" data-name="Tracé 1075" d="M40.225,80.823c0,3.2-1.712,5.254-4.3,5.254a3.49,3.49,0,0,1-3.239-1.8h-.049v5.1H30.53v-13.7h2.045v1.712h.039a3.651,3.651,0,0,1,3.278-1.819C38.5,75.568,40.225,77.633,40.225,80.823Zm-2.171,0c0-2.084-1.077-3.454-2.721-3.454-1.614,0-2.7,1.4-2.7,3.454,0,2.074,1.086,3.463,2.7,3.463C36.977,84.286,38.054,82.926,38.054,80.823Z" transform="translate(1.577 -71.615)" fill="#fff"/>
    <path id="Tracé_1076" data-name="Tracé 1076" d="M45.9,82.512c.157,1.4,1.517,2.319,3.375,2.319,1.78,0,3.062-.92,3.062-2.182,0-1.1-.773-1.752-2.6-2.2l-1.829-.441c-2.593-.626-3.8-1.838-3.8-3.806,0-2.435,2.123-4.109,5.136-4.109,2.983,0,5.028,1.673,5.1,4.109H52.215c-.127-1.409-1.293-2.259-2.995-2.259s-2.866.861-2.866,2.112c0,1,.744,1.586,2.563,2.035l1.556.382c2.9.686,4.1,1.85,4.1,3.914,0,2.642-2.1,4.3-5.45,4.3-3.131,0-5.244-1.615-5.381-4.169Z" transform="translate(3.385 -72.091)" fill="#fff"/>
    <path id="Tracé_1077" data-name="Tracé 1077" d="M57.716,73.52v2.435h1.957v1.674H57.716V83.3c0,.881.392,1.292,1.252,1.292a6.485,6.485,0,0,0,.7-.049V86.21a5.782,5.782,0,0,1-1.174.1c-2.084,0-2.9-.782-2.9-2.779v-5.9H54.1V75.955h1.5V73.52Z" transform="translate(4.802 -71.895)" fill="#fff"/>
    <path id="Tracé_1078" data-name="Tracé 1078" d="M60,80.825c0-3.239,1.907-5.274,4.882-5.274s4.882,2.035,4.882,5.274S67.873,86.1,64.88,86.1,60,84.073,60,80.825Zm7.611,0c0-2.221-1.019-3.533-2.73-3.533s-2.731,1.321-2.731,3.533c0,2.231,1.019,3.532,2.731,3.532S67.609,83.056,67.609,80.825Z" transform="translate(5.61 -71.617)" fill="#fff"/>
    <path id="Tracé_1079" data-name="Tracé 1079" d="M70.119,75.675h2.015v1.752h.049a2.454,2.454,0,0,1,2.476-1.859,3.287,3.287,0,0,1,.724.078v1.976a2.979,2.979,0,0,0-.949-.127,2.129,2.129,0,0,0-2.2,2.368v6.106H70.119Z" transform="translate(6.996 -71.615)" fill="#fff"/>
    <path id="Tracé_1080" data-name="Tracé 1080" d="M84.435,82.948C84.151,84.817,82.331,86.1,80,86.1c-2.993,0-4.852-2.007-4.852-5.225s1.868-5.323,4.764-5.323c2.848,0,4.638,1.957,4.638,5.077v.724H77.283v.127A2.681,2.681,0,0,0,80.051,84.4a2.328,2.328,0,0,0,2.377-1.448Zm-7.142-3.072h5.146a2.476,2.476,0,0,0-2.525-2.613A2.605,2.605,0,0,0,77.293,79.876Z" transform="translate(7.684 -71.617)" fill="#fff"/>
  </g>
</svg>
