<svg id="icon_login" xmlns="http://www.w3.org/2000/svg" width="23.518" height="22.496" viewBox="0 0 23.518 22.496">
  <path id="Tracé_1013" data-name="Tracé 1013" d="M15.594,220.534H.767a.767.767,0,0,1,0-1.534H15.594a.767.767,0,0,1,0,1.534Zm0,0" transform="translate(0 -208.519)" fill="#fff"/>
  <path id="Tracé_1014" data-name="Tracé 1014" d="M224.771,143.345a.767.767,0,0,1-.542-1.31l3.548-3.548-3.548-3.548a.767.767,0,0,1,1.085-1.085l4.09,4.09a.767.767,0,0,1,0,1.085l-4.09,4.09A.761.761,0,0,1,224.771,143.345Zm0,0" transform="translate(-213.267 -127.24)" fill="#fff"/>
  <path id="Tracé_1015" data-name="Tracé 1015" d="M46.994,22.829A11.19,11.19,0,0,1,36.525,15.7a.767.767,0,1,1,1.427-.56,9.714,9.714,0,1,0,0-7.109.767.767,0,1,1-1.427-.56A11.248,11.248,0,1,1,46.994,22.829Zm0,0" transform="translate(-34.724 -0.333)" fill="#fff"/>
</svg>
