<svg id="icon_like" xmlns="http://www.w3.org/2000/svg" width="19.359" height="17.646" viewBox="0 0 19.359 17.646">
  <g id="Add_to_Favorite_Songs" data-name="Add to Favorite Songs" transform="translate(-0.55 -0.5)" fill="none">
    <path d="M2.211,2.156a5.641,5.641,0,0,0,0,7.995l8.019,7.995,8.019-7.995A5.662,5.662,0,0,0,10.23,2.156,5.682,5.682,0,0,0,2.211,2.156Z" stroke="none"/>
    <path d="M 6.220273971557617 2.000005722045898 C 5.105593681335449 2.000005722045898 4.057863235473633 2.432584762573242 3.270072937011719 3.218074798583984 C 2.483474731445313 4.002334594726563 2.050283432006836 5.044734954833984 2.05029296875 6.153254508972168 C 2.05029296875 7.261754989624023 2.483484268188477 8.30412483215332 3.270072937011719 9.088384628295898 L 10.22954559326172 16.0273551940918 L 17.18924331665039 9.088375091552734 C 17.9758243560791 8.30412483215332 18.40900421142578 7.261744499206543 18.40898323059082 6.153254508972168 C 18.40897369384766 5.044744491577148 17.97574424743652 4.002354621887207 17.18907356262207 3.21806526184082 C 16.40128326416016 2.432584762573242 15.35353374481201 2.000005722045898 14.23885345458984 2.000005722045898 C 13.12416362762451 2.000005722045898 12.07642364501953 2.432584762573242 11.28863334655762 3.21806526184082 L 10.22952365875244 4.274065017700195 L 9.17042350769043 3.218045234680176 C 8.382663726806641 2.432584762573242 7.334943771362305 2.000005722045898 6.220273971557617 2.000005722045898 M 6.220273971557617 0.5000019073486328 C 7.671348571777344 0.5000019073486328 9.122418403625488 1.051950454711914 10.22953414916992 2.155844688415527 C 11.33668899536133 1.051950454711914 12.78777122497559 0.5000019073486328 14.23885345458984 0.5000019073486328 C 15.6899356842041 0.5000019073486328 17.14101791381836 1.051950454711914 18.24817276000977 2.155844688415527 C 20.46256446838379 4.363544464111328 20.46256446838379 7.942934989929199 18.24833297729492 10.15060424804688 L 10.22953414916992 18.14553451538086 L 2.210983276367188 10.15060424804688 C -0.003276824951171875 7.942934989929199 -0.003276824951171875 4.363544464111328 2.210983276367188 2.155844688415527 C 3.318119049072266 1.051950454711914 4.769198417663574 0.5000019073486328 6.220273971557617 0.5000019073486328 Z" stroke="none" fill="#fff"/>
  </g>
</svg>
