<svg id="icon_métier_map" xmlns="http://www.w3.org/2000/svg" width="40" height="40" viewBox="0 0 40 40">
  <g id="Ellipse_6" data-name="Ellipse 6" fill="#fff" stroke="#458076" stroke-width="1">
    <circle cx="20" cy="20" r="20" stroke="none"/>
    <circle cx="20" cy="20" r="19.5" fill="none"/>
  </g>
  <g id="briefcase" transform="translate(9.898 9.954)">
    <path id="Tracé_866" data-name="Tracé 866" d="M19.229,33.622H13.981V32.468a2.346,2.346,0,0,0-2.343-2.343H8.171a2.346,2.346,0,0,0-2.343,2.343v1.153H.58A.58.58,0,0,0,0,34.2V44.745A2.861,2.861,0,0,0,2.858,47.6H16.951a2.861,2.861,0,0,0,2.858-2.858V34.2A.58.58,0,0,0,19.229,33.622ZM11.221,41.2a1.317,1.317,0,0,1-2.634,0V39.878h2.634Zm.58-2.477H8.007a.58.58,0,0,0-.58.58v1.054c-3.375-.732-5.9-2.921-6.23-5.57H18.612c-.325,2.648-2.855,4.837-6.23,5.57V39.3a.58.58,0,0,0-.58-.58ZM6.988,32.468a1.184,1.184,0,0,1,1.183-1.183h3.467a1.184,1.184,0,0,1,1.183,1.183v1.153H6.988V32.468Zm11.66,12.276a1.7,1.7,0,0,1-1.7,1.7H2.858a1.7,1.7,0,0,1-1.7-1.7v-6.97a8.146,8.146,0,0,0,1.8,1.836,10.933,10.933,0,0,0,4.489,1.932,2.477,2.477,0,0,0,4.905,0,10.934,10.934,0,0,0,4.489-1.932,8.147,8.147,0,0,0,1.8-1.836Z" transform="translate(0 -30.125)" fill="#458076"/>
  </g>
</svg>
