<svg id="icon_share" xmlns="http://www.w3.org/2000/svg" width="17.646" height="17.646" viewBox="0 0 17.646 17.646">
  <path id="Share_18" data-name="Share 18" d="M14.916,12.352a2.8,2.8,0,0,0-1.95.882l-7.7-3.921v-.49a.738.738,0,0,0-.1-.49l7.7-3.921a2.449,2.449,0,0,0,1.95.882,2.629,2.629,0,0,0,2.632-2.647A2.49,2.49,0,0,0,14.916,0a2.629,2.629,0,0,0-2.632,2.647v.392L4.485,6.96a2.34,2.34,0,0,0-1.852-.784,2.647,2.647,0,0,0,0,5.294,2.449,2.449,0,0,0,1.95-.882l7.8,4.019V15a2.632,2.632,0,1,0,5.264,0A2.779,2.779,0,0,0,14.916,12.352Z" fill="#fff"/>
</svg>
