<svg id="icon_publier" xmlns="http://www.w3.org/2000/svg" width="21.34" height="19.561" viewBox="0 0 21.34 19.561">
  <g id="Groupe_9723" data-name="Groupe 9723">
    <path id="Tracé_1011" data-name="Tracé 1011" d="M29.119,6.664h-.765V.433a.434.434,0,0,0-.718-.327l-1.149,1a16.014,16.014,0,0,1-1.925,1.435,16.031,16.031,0,0,1-8.6,2.5H13.846a3.836,3.836,0,1,0,0,7.672h1.012v6.417a.434.434,0,0,0,.434.434H17.78A1.557,1.557,0,0,0,19.335,18v-.733h.657a1.559,1.559,0,0,0,0-3.118h-.657V13.067a16.052,16.052,0,0,1,7.152,3.575l1.149,1a.434.434,0,0,0,.718-.327V11.083h.765a2.21,2.21,0,0,0,0-4.419ZM10.854,8.873A2.984,2.984,0,0,1,13.846,5.9h1.012v5.937H13.846a2.984,2.984,0,0,1-2.992-2.969Zm9.138,6.147a.692.692,0,0,1,0,1.383h-.657V15.021ZM18.468,18a.689.689,0,0,1-.688.688H15.726V12.709h.233a16.111,16.111,0,0,1,2.51.2Zm9.019-1.642-.43-.374A16.882,16.882,0,0,0,25.228,14.6V11.054a.434.434,0,0,0-.867,0v3.02a16.9,16.9,0,0,0-8.4-2.231h-.233V5.9h.233a16.9,16.9,0,0,0,8.4-2.231V7.132a.434.434,0,0,0,.867,0V3.142a16.87,16.87,0,0,0,1.829-1.383l.43-.374Zm1.632-6.146h-.765V7.531h.765a1.342,1.342,0,0,1,0,2.685Z" transform="translate(-9.987 0.001)" fill="#458076"/>
    <path id="Tracé_1012" data-name="Tracé 1012" d="M342.234,200.124a.433.433,0,1,0-.172.534.437.437,0,0,0,.172-.534Z" transform="translate(-327.026 -191.188)" fill="#458076"/>
  </g>
</svg>
