<svg id="icon_position_actuelle" xmlns="http://www.w3.org/2000/svg" width="35" height="35" viewBox="0 0 35 35">
  <circle id="Ellipse_5" data-name="Ellipse 5" cx="17.5" cy="17.5" r="17.5" fill="#42475e"/>
  <path id="path" d="M16.854,11.156a6.443,6.443,0,0,1-5.7,5.7v.793a.721.721,0,1,1-1.443,0v-.793a6.311,6.311,0,0,1-5.7-5.7H3.221a.721.721,0,1,1,0-1.443h.793a6.311,6.311,0,0,1,5.7-5.7V3.221a.721.721,0,0,1,1.443,0v.793a6.443,6.443,0,0,1,5.7,5.7h.793a.721.721,0,0,1,0,1.443Zm-6.42,4.328a5.049,5.049,0,1,0-5.049-5.049,5.018,5.018,0,0,0,5.049,5.049Zm0-2.164a2.885,2.885,0,1,1,2.885-2.885,2.894,2.894,0,0,1-2.885,2.885Zm0-1.443a1.443,1.443,0,1,0-1.443-1.443,1.447,1.447,0,0,0,1.443,1.443Z" transform="translate(7.22 7.217)" fill="#fff"/>
</svg>
