<svg id="logo_vectoriel" xmlns="http://www.w3.org/2000/svg" width="83.488" height="29.6" viewBox="0 0 83.488 29.6">
  <g id="Groupe_9675" data-name="Groupe 9675" transform="translate(31.615 0.127)">
    <g id="Groupe_9674" data-name="Groupe 9674" transform="translate(0 0)">
      <path id="Tracé_992" data-name="Tracé 992" d="M329.236,212.627v8.019h3.527v8.292h-3.527a5.547,5.547,0,0,0,.787,3.443,3.616,3.616,0,0,0,2.887.945v8.25q-.61.021-.9.021a10.665,10.665,0,0,1-5.028-1.239A10.173,10.173,0,0,1,323.19,237a12.747,12.747,0,0,1-1.805-7.18V212.627Z" transform="translate(-321.385 -212.249)" fill="#fff"/>
      <path id="Tracé_993" data-name="Tracé 993" d="M400.066,260.3v8.124a10.358,10.358,0,0,1-1.763.168,10.756,10.756,0,0,1-7.872-3.107A10.942,10.942,0,0,1,398.2,246.8a10.736,10.736,0,0,1,8.009,2.97,11.054,11.054,0,0,1,2.929,8.114v10.265h-7.851v-9.7a4.049,4.049,0,0,0-.808-2.645,2.663,2.663,0,0,0-2.173-.987,3.09,3.09,0,0,0-2.225,5.185,2.778,2.778,0,0,0,2.078.84A3.562,3.562,0,0,0,400.066,260.3Z" transform="translate(-373.195 -239.12)" fill="#fff"/>
      <path id="Tracé_994" data-name="Tracé 994" d="M522.28,223.6v8.229h-3.506v8.061h-7.851V222.111a11.644,11.644,0,0,1,1.029-5.122,10.716,10.716,0,0,1,3.957-4.419,10.07,10.07,0,0,1,5.532-1.711l.84.021v8.229c-.182-.014-.315-.021-.4-.021a2.8,2.8,0,0,0-2.3.987,4.331,4.331,0,0,0-.808,2.813v.714Z" transform="translate(-470.407 -210.859)" fill="#fff"/>
    </g>
  </g>
  <path id="Tracé_995" data-name="Tracé 995" d="M188.227,210.267a14.741,14.741,0,1,0,14.741,14.741A14.741,14.741,0,0,0,188.227,210.267Zm0,27.661a12.92,12.92,0,1,1,12.92-12.92A12.92,12.92,0,0,1,188.227,237.928Z" transform="translate(-173.486 -210.267)" fill="#fff"/>
  <path id="Tracé_996" data-name="Tracé 996" d="M238.418,257.665q-2.061-1.314-4.128-2.618-1.513-.959-3.025-1.92a2.334,2.334,0,0,0-.209-.126c-.461-.228-.745-.062-.749.452-.007,1.141,0,2.281,0,3.422q0,.591,0,1.182,0,2.2,0,4.4a2.154,2.154,0,0,0,.02.406c.088.453.343.569.729.326q3.582-2.261,7.16-4.529a1.555,1.555,0,0,0,.293-.219A.457.457,0,0,0,238.418,257.665Z" transform="translate(-218.158 -243.787)" fill="#fff"/>
</svg>
