<svg id="icon_tourisme" xmlns="http://www.w3.org/2000/svg" width="38.26" height="34.434" viewBox="0 0 38.26 34.434">
  <path id="Tracé_882" data-name="Tracé 882" d="M52.13,130.494a2.219,2.219,0,0,0,.217-.959v-3.188a2.234,2.234,0,0,0-2.232-2.232H49.15a1.437,1.437,0,0,0-1.426-1.275H27.478a.638.638,0,0,0-.638.638v.638h-1.7a2.233,2.233,0,0,0,.2-1.233l-.877-7.014a2.235,2.235,0,0,0-2.215-1.955H21.42a2.219,2.219,0,0,0-.959.217A2.235,2.235,0,0,0,18.232,112H16.638a.638.638,0,0,0-.638.638v3.188h1.275v-2.551h.956a.958.958,0,0,1,.957.956v21.362H17.275V117.1H16v22.956a.638.638,0,0,0,.638.638h1.528a3.821,3.821,0,0,0,3.63-2.616l.4-1.21H44.057v-1.275H20.464v-3.826H52.028a.958.958,0,0,1,.957.956v2.869H45.333v1.275h2.729l.4,1.21a3.821,3.821,0,0,0,3.63,2.616h1.528a.638.638,0,0,0,.638-.638v-7.333A2.235,2.235,0,0,0,52.13,130.494Zm-31.276,6.374-.269.807a2.547,2.547,0,0,1-2.42,1.744h-.89v-2.551Zm27.029-12.594v3.667H31.942v-3.826H47.724A.159.159,0,0,1,47.883,124.275Zm-19.768-.159h2.551v3.826H28.116Zm-6.7-8.927h.825a.958.958,0,0,1,.949.838l.877,7.014a.956.956,0,0,1-.949,1.075H20.464v-7.971A.958.958,0,0,1,21.42,115.188Zm-.957,15.3v-5.1H26.84v3.188a.638.638,0,0,0,.638.638H48.521a.638.638,0,0,0,.638-.638v-3.188h.956a.958.958,0,0,1,.956.956v3.188a.958.958,0,0,1-.957.956Zm32.521,8.927h-.89a2.547,2.547,0,0,1-2.42-1.744l-.269-.807h3.579Z" transform="translate(-16 -106.261)" fill="#03334f"/>
  <path id="Tracé_883" data-name="Tracé 883" d="M282.021,161.808l1.322.723.723,1.322a.638.638,0,0,0,1.119,0l.723-1.322,1.322-.723a.638.638,0,0,0,0-1.119l-1.322-.723-.723-1.322a.638.638,0,0,0-1.119,0l-.723,1.322-1.322.723a.638.638,0,0,0,0,1.119Zm2.1-.813a.637.637,0,0,0,.253-.253l.253-.463.253.463a.637.637,0,0,0,.254.253l.463.253-.463.253a.637.637,0,0,0-.254.253l-.253.463-.253-.463a.637.637,0,0,0-.253-.253l-.463-.253Z" transform="translate(-260.511 -148.882)" fill="#03334f"/>
  <path id="Tracé_884" data-name="Tracé 884" d="M184.332,75.5l1.322.723.723,1.322a.638.638,0,0,0,1.119,0l.723-1.322,1.322-.723a.638.638,0,0,0,0-1.119l-1.322-.723-.723-1.322a.638.638,0,0,0-1.119,0l-.723,1.322-1.322.723a.638.638,0,0,0,0,1.119Zm2.1-.813a.637.637,0,0,0,.253-.253l.253-.463.253.463a.637.637,0,0,0,.253.253l.463.253-.463.253a.637.637,0,0,0-.253.253l-.253.463-.253-.463a.637.637,0,0,0-.253-.253l-.463-.253Z" transform="translate(-170.608 -69.45)" fill="#03334f"/>
  <path id="Tracé_885" data-name="Tracé 885" d="M334.644,43.5l1.322.723.723,1.322a.638.638,0,0,0,1.119,0l.723-1.322,1.322-.723a.638.638,0,0,0,0-1.119l-1.322-.723-.723-1.322a.638.638,0,0,0-1.119,0l-.723,1.322-1.322.723a.638.638,0,0,0,0,1.119Zm2.1-.813A.638.638,0,0,0,337,42.43l.253-.463.253.463a.637.637,0,0,0,.254.253l.463.253-.463.253a.638.638,0,0,0-.254.253l-.253.463L337,43.444a.638.638,0,0,0-.254-.253l-.463-.253Z" transform="translate(-308.939 -40)" fill="#03334f"/>
</svg>
