<svg id="icon_Google_Play" xmlns="http://www.w3.org/2000/svg" xmlns:xlink="http://www.w3.org/1999/xlink" width="153.25" height="45.407" viewBox="0 0 153.25 45.407">
  <defs>
    <linearGradient id="linear-gradient" x1="0.915" y1="3.073" x2="-0.383" y2="2.403" gradientUnits="objectBoundingBox">
      <stop offset="0" stop-color="#00a0ff"/>
      <stop offset="0.007" stop-color="#00a1ff"/>
      <stop offset="0.26" stop-color="#00beff"/>
      <stop offset="0.512" stop-color="#00d2ff"/>
      <stop offset="0.76" stop-color="#00dfff"/>
      <stop offset="1" stop-color="#00e3ff"/>
    </linearGradient>
    <linearGradient id="linear-gradient-2" x1="1.076" y1="6.72" x2="-1.305" y2="6.72" gradientUnits="objectBoundingBox">
      <stop offset="0" stop-color="#ffe000"/>
      <stop offset="0.409" stop-color="#ffbd00"/>
      <stop offset="0.775" stop-color="orange"/>
      <stop offset="1" stop-color="#ff9c00"/>
    </linearGradient>
    <linearGradient id="linear-gradient-3" x1="0.862" y1="3.959" x2="-0.501" y2="2.189" gradientUnits="objectBoundingBox">
      <stop offset="0" stop-color="#ff3a44"/>
      <stop offset="1" stop-color="#c31162"/>
    </linearGradient>
    <linearGradient id="linear-gradient-4" x1="-0.188" y1="6.679" x2="0.421" y2="5.889" gradientUnits="objectBoundingBox">
      <stop offset="0" stop-color="#32a071"/>
      <stop offset="0.068" stop-color="#2da771"/>
      <stop offset="0.476" stop-color="#15cf74"/>
      <stop offset="0.801" stop-color="#06e775"/>
      <stop offset="1" stop-color="#00f076"/>
    </linearGradient>
  </defs>
  <rect id="Rectangle_3530" data-name="Rectangle 3530" width="153.249" height="45.407" rx="4.992" transform="translate(0)"/>
  <g id="Groupe_9727" data-name="Groupe 9727">
    <g id="Groupe_9726" data-name="Groupe 9726">
      <path id="Tracé_1016" data-name="Tracé 1016" d="M250.039,55.374a4.773,4.773,0,0,1,4.768,4.768V94.2a4.774,4.774,0,0,1-4.768,4.768h-141.9a4.774,4.774,0,0,1-4.768-4.768V60.142a4.773,4.773,0,0,1,4.768-4.768h141.9m0-.908h-141.9a5.693,5.693,0,0,0-5.676,5.676V94.2a5.692,5.692,0,0,0,5.676,5.675h141.9a5.692,5.692,0,0,0,5.676-5.675V60.142a5.693,5.693,0,0,0-5.676-5.676Z" transform="translate(-102.466 -54.466)" fill="#a6a6a6"/>
    </g>
  </g>
  <path id="Tracé_1017" data-name="Tracé 1017" d="M174.2,76.828a4.828,4.828,0,1,0,4.847,4.828A4.759,4.759,0,0,0,174.2,76.828Zm0,7.755a2.934,2.934,0,1,1,2.725-2.926A2.793,2.793,0,0,1,174.2,84.583Zm-10.572-7.755a4.828,4.828,0,1,0,4.845,4.828A4.759,4.759,0,0,0,163.631,76.828Zm0,7.755a2.934,2.934,0,1,1,2.724-2.926A2.793,2.793,0,0,1,163.631,84.583Zm-12.577-6.273v2.049h4.9a4.277,4.277,0,0,1-1.116,2.578,5.017,5.017,0,0,1-3.786,1.5,5.45,5.45,0,0,1,0-10.9A5.224,5.224,0,0,1,154.749,75l1.445-1.445a7.145,7.145,0,0,0-5.14-2.067,7.5,7.5,0,1,0,0,15,6.857,6.857,0,0,0,5.231-2.1,7.4,7.4,0,0,0,1.664-6.072ZM202.488,79.9a4.489,4.489,0,0,0-4.134-3.073,4.588,4.588,0,0,0-4.553,4.828,4.724,4.724,0,0,0,4.791,4.828,4.8,4.8,0,0,0,4.023-2.14l-1.646-1.1a2.758,2.758,0,0,1-2.377,1.335,2.458,2.458,0,0,1-2.341-1.463l6.456-2.671ZM195.9,81.51a2.647,2.647,0,0,1,2.523-2.816,1.87,1.87,0,0,1,1.793,1.024Zm-5.249,4.682h2.121V72h-2.121Zm-3.475-8.284h-.073a3.347,3.347,0,0,0-2.542-1.079,4.833,4.833,0,0,0,0,9.657,3.293,3.293,0,0,0,2.542-1.1h.073v.695c0,1.847-.987,2.834-2.578,2.834a2.67,2.67,0,0,1-2.432-1.719l-1.847.769a4.6,4.6,0,0,0,4.279,2.852c2.488,0,4.591-1.463,4.591-5.03V77.121H187.18Zm-2.432,6.676a2.937,2.937,0,0,1,0-5.853,2.95,2.95,0,0,1,0,5.853ZM212.424,72h-5.075V86.191h2.118V80.815h2.957a4.414,4.414,0,1,0,0-8.814Zm.056,6.839h-3.013V73.976h3.013a2.433,2.433,0,1,1,0,4.865ZM225.57,76.8a3.976,3.976,0,0,0-3.779,2.173l1.88.786a2.005,2.005,0,0,1,1.935-1.041,2.04,2.04,0,0,1,2.227,1.826v.147a4.68,4.68,0,0,0-2.209-.548c-2.026,0-4.089,1.114-4.089,3.195a3.277,3.277,0,0,0,3.523,3.122,2.989,2.989,0,0,0,2.7-1.387h.073v1.1h2.045V80.727C229.879,78.208,228,76.8,225.57,76.8Zm-.256,7.777c-.694,0-1.661-.347-1.661-1.205,0-1.095,1.205-1.514,2.245-1.514a3.771,3.771,0,0,1,1.935.474A2.567,2.567,0,0,1,225.314,84.579Zm12.013-7.467L234.9,83.265h-.073l-2.519-6.153h-2.283l3.78,8.6L231.65,90.5h2.209l5.824-13.383Zm-19.079,9.079h2.118V72h-2.118Z" transform="translate(-96.856 -52.136)" fill="#fff"/>
  <g id="Groupe_9729" data-name="Groupe 9729" transform="translate(11.321 8.105)">
    <path id="Tracé_1018" data-name="Tracé 1018" d="M112.949,62a2.273,2.273,0,0,0-.525,1.6V88.7a2.272,2.272,0,0,0,.525,1.594l.084.082L127.1,76.316v-.332L113.033,61.92Z" transform="translate(-112.424 -61.552)" fill="url(#linear-gradient)"/>
    <path id="Tracé_1019" data-name="Tracé 1019" d="M130.018,79.877l-4.688-4.69v-.332l4.69-4.688.1.06,5.555,3.156c1.586.9,1.586,2.376,0,3.278l-5.555,3.156Z" transform="translate(-110.657 -60.423)" fill="url(#linear-gradient-2)"/>
    <path id="Tracé_1020" data-name="Tracé 1020" d="M131.828,79.232l-4.794-4.8L112.886,88.584a1.846,1.846,0,0,0,2.359.071l16.583-9.423" transform="translate(-112.361 -59.838)" fill="url(#linear-gradient-3)"/>
    <path id="Tracé_1021" data-name="Tracé 1021" d="M131.828,71.4l-16.583-9.422a1.846,1.846,0,0,0-2.359.069l14.147,14.147Z" transform="translate(-112.361 -61.596)" fill="url(#linear-gradient-4)"/>
    <g id="Groupe_9728" data-name="Groupe 9728" transform="translate(0 19.288)">
      <path id="Tracé_1022" data-name="Tracé 1022" d="M131.723,78.562l-16.478,9.362a1.893,1.893,0,0,1-2.275.013h0l-.084.084h0l.084.082h0a1.889,1.889,0,0,0,2.275-.011l16.583-9.422Z" transform="translate(-112.361 -78.562)" opacity="0.2" style="isolation: isolate"/>
      <path id="Tracé_1023" data-name="Tracé 1023" d="M112.949,86.928a2.276,2.276,0,0,1-.525-1.6V85.5a2.275,2.275,0,0,0,.525,1.6l.084-.084Z" transform="translate(-112.424 -77.635)" opacity="0.12" style="isolation: isolate"/>
    </g>
    <path id="Tracé_1024" data-name="Tracé 1024" d="M135.114,75.91l-5.659,3.216.1.106,5.555-3.156a2,2,0,0,0,1.19-1.638h0A2.114,2.114,0,0,1,135.114,75.91Z" transform="translate(-110.093 -59.838)" opacity="0.12" style="isolation: isolate"/>
    <path id="Tracé_1025" data-name="Tracé 1025" d="M115.308,62.144l22.137,12.577a2.116,2.116,0,0,1,1.19,1.473h0a1.991,1.991,0,0,0-1.19-1.638L115.308,61.978c-1.587-.9-2.884-.152-2.884,1.664v.166C112.424,61.992,113.721,61.242,115.308,62.144Z" transform="translate(-112.424 -61.596)" fill="#fff" opacity="0.25" style="isolation: isolate"/>
  </g>
</svg>
