<svg id="picto_audio_seul" xmlns="http://www.w3.org/2000/svg" width="25.59" height="23.123" viewBox="0 0 25.59 23.123">
  <g id="Volume" transform="translate(8.335 8.904)">
    <path id="Volume-2" data-name="Volume" d="M10.134,11.384a5.945,5.945,0,0,0,0-8.217l.634-.638a6.615,6.615,0,0,1,0,9.48ZM7.78,9.014a2.492,2.492,0,0,0,0-3.478L8.414,4.9a3.452,3.452,0,0,1,0,4.739Z" transform="translate(-7.78 -0.159)" fill="#fff"/>
    <path id="Volume-3" data-name="Volume" d="M13.785,13.655A9.062,9.062,0,0,0,13.785.7l.638-.638a10.013,10.013,0,0,1,0,14.22Z" transform="translate(-9.08 -0.059)" fill="#fff"/>
  </g>
  <g id="headphones">
    <g id="Groupe_9678" data-name="Groupe 9678" transform="translate(0 0)">
      <g id="Groupe_9677" data-name="Groupe 9677">
        <path id="Tracé_997" data-name="Tracé 997" d="M2.124,43.119c-.006-.144-.01-.288-.01-.434a10.682,10.682,0,1,1,21.363,0c0,.145,0,.29-.01.434A3.6,3.6,0,0,1,25.59,46.4v3.2a3.6,3.6,0,0,1-3.6,3.6V54a.4.4,0,0,1-.4.4h-1.6a.4.4,0,0,1-.4-.4V42a.4.4,0,0,1,.4-.4h1.113a8.422,8.422,0,0,0-16.621,0H5.6A.4.4,0,0,1,6,42V54a.4.4,0,0,1-.4.4H4a.4.4,0,0,1-.4-.4v-.8A3.6,3.6,0,0,1,0,49.6V46.4A3.6,3.6,0,0,1,2.124,43.119ZM21.992,52.4a2.8,2.8,0,0,0,2.8-2.8V46.4a2.8,2.8,0,0,0-2.8-2.8Zm-1.6-10V53.6h.8V42.4ZM4.4,53.6h.8V42.4H4.4ZM3.635,41.836a9.23,9.23,0,0,1,18.319,0,.4.4,0,0,1,.037.164v.186q.026.306.032.615a3.581,3.581,0,0,1,.649.065c0-.061,0-.12,0-.181a9.882,9.882,0,0,0-19.764,0c0,.061,0,.12,0,.181a3.581,3.581,0,0,1,.649-.067q.006-.31.032-.615V42A.4.4,0,0,1,3.635,41.836ZM.8,49.6a2.8,2.8,0,0,0,2.8,2.8V43.6A2.8,2.8,0,0,0,.8,46.4Z" transform="translate(0 -32.004)" fill="#fff"/>
      </g>
    </g>
    <g id="Groupe_9680" data-name="Groupe 9680" transform="translate(22.791 16.593)">
      <g id="Groupe_9679" data-name="Groupe 9679">
        <path id="Tracé_998" data-name="Tracé 998" d="M40.4,364a.4.4,0,0,1,.4.4v.4a.4.4,0,0,1-.8,0v-.4A.4.4,0,0,1,40.4,364Z" transform="translate(-40 -363.996)" fill="#fff"/>
      </g>
    </g>
    <g id="Groupe_9682" data-name="Groupe 9682" transform="translate(22.791 14.994)">
      <g id="Groupe_9681" data-name="Groupe 9681">
        <path id="Tracé_999" data-name="Tracé 999" d="M40.4,332a.4.4,0,0,1,.4.4v.4a.4.4,0,0,1-.8,0v-.4A.4.4,0,0,1,40.4,332Z" transform="translate(-40 -331.996)" fill="#fff"/>
      </g>
    </g>
    <g id="Groupe_9684" data-name="Groupe 9684" transform="translate(22.791 13.394)">
      <g id="Groupe_9683" data-name="Groupe 9683">
        <path id="Tracé_1000" data-name="Tracé 1000" d="M40.4,300a.4.4,0,0,1,.4.4v.4a.4.4,0,0,1-.8,0v-.4A.4.4,0,0,1,40.4,300Z" transform="translate(-40 -299.996)" fill="#fff"/>
      </g>
    </g>
  </g>
</svg>
